<?xml version="1.0" standalone="no"?>
<!DOCTYPE svg PUBLIC "-//W3C//DTD SVG 20010904//EN"
 "http://www.w3.org/TR/2001/REC-SVG-20010904/DTD/svg10.dtd">
<svg version="1.0" xmlns="http://www.w3.org/2000/svg"
 width="700.000000pt" height="700.000000pt" viewBox="0 0 700.000000 700.000000"
 preserveAspectRatio="xMidYMid meet">
<metadata>
Created by potrace 1.14, written by Peter Selinger 2001-2017
</metadata>
<g transform="translate(0.000000,700.000000) scale(0.100000,-0.100000)"
fill="#000000" stroke="none">
<path d="M2656 6973 c-2 -3 -22 -6 -43 -8 -50 -3 -84 -12 -97 -25 -5 -5 -18
-10 -28 -10 -10 0 -21 -7 -24 -15 -4 -8 -9 -13 -13 -11 -7 5 -72 -30 -72 -38
2 -19 0 -26 -6 -23 -14 4 -54 -43 -47 -55 5 -7 3 -8 -6 -3 -10 6 -12 4 -7 -8
3 -9 3 -16 -1 -16 -19 3 -33 -2 -28 -10 3 -5 -3 -20 -14 -33 -11 -14 -16 -28
-13 -32 3 -3 1 -6 -6 -6 -7 0 -10 -4 -6 -9 3 -5 0 -13 -6 -16 -5 -4 -8 -13 -5
-21 3 -8 1 -14 -4 -14 -6 0 -10 -7 -10 -16 0 -8 -7 -22 -15 -31 -8 -8 -13 -19
-10 -24 4 -5 0 -9 -7 -9 -9 0 -9 -3 2 -10 10 -6 11 -10 3 -10 -7 0 -15 -11
-19 -25 -3 -14 -11 -25 -16 -25 -6 0 -8 -7 -4 -15 3 -8 1 -15 -4 -15 -5 0 -7
-9 -5 -20 2 -11 0 -18 -6 -15 -5 4 -9 -1 -9 -10 0 -9 -4 -14 -9 -11 -5 4 -7
-3 -4 -14 3 -12 0 -20 -8 -20 -7 0 -9 -3 -6 -7 4 -3 -1 -15 -10 -26 -10 -11
-12 -17 -5 -13 17 10 15 0 -5 -24 -10 -11 -18 -26 -19 -33 -1 -19 -28 -77 -35
-77 -4 0 -6 -11 -4 -25 1 -14 0 -23 -3 -21 -3 3 -14 -14 -24 -37 -32 -69 -34
-72 -57 -75 -12 -2 -19 -7 -16 -12 3 -5 -4 -7 -15 -5 -11 2 -20 0 -20 -6 0 -5
-3 -8 -7 -7 -5 1 -18 -3 -29 -10 -12 -6 -24 -8 -28 -5 -3 3 -6 1 -6 -6 0 -7
-4 -9 -10 -6 -5 3 -10 1 -10 -5 0 -6 -4 -9 -9 -6 -10 7 -71 -16 -71 -26 0 -4
-7 -5 -15 -2 -8 4 -15 1 -15 -6 0 -6 -4 -9 -9 -5 -5 3 -12 1 -16 -4 -3 -6 -12
-8 -20 -4 -8 3 -15 1 -15 -4 0 -9 -79 -38 -89 -33 -2 1 -7 -3 -11 -9 -3 -6
-15 -14 -26 -16 -44 -10 -94 -30 -94 -37 0 -5 -11 -8 -25 -8 -14 0 -25 -5 -25
-11 0 -5 -4 -8 -9 -5 -5 3 -20 -3 -34 -14 -14 -11 -31 -20 -39 -20 -8 0 -19
-5 -26 -12 -7 -7 -12 -9 -12 -5 0 4 -6 2 -14 -5 -8 -7 -11 -17 -8 -22 3 -5 0
-6 -6 -2 -6 3 -17 -3 -25 -14 -7 -11 -17 -17 -20 -13 -4 3 -7 -1 -7 -11 0 -9
-4 -14 -10 -11 -5 3 -10 1 -10 -5 0 -6 -12 -22 -27 -36 -16 -14 -21 -22 -13
-18 8 4 5 -3 -8 -15 -12 -12 -20 -26 -17 -32 4 -5 1 -9 -4 -9 -6 0 -16 -20
-23 -44 -6 -25 -16 -42 -22 -39 -5 4 -7 -1 -3 -10 4 -10 1 -17 -6 -17 -7 0 -8
-3 -2 -8 13 -9 18 -35 5 -27 -6 4 -10 -9 -10 -35 0 -30 -3 -39 -12 -35 -7 4
-4 -1 6 -9 11 -9 15 -16 10 -16 -12 0 -9 -39 8 -117 6 -29 15 -53 20 -53 5 0
7 -4 4 -8 -3 -5 2 -21 9 -36 8 -16 12 -33 8 -39 -4 -6 -1 -7 7 -2 10 6 12 3 8
-13 -4 -12 -2 -22 3 -22 5 0 9 -7 9 -16 0 -9 5 -12 12 -8 7 4 8 3 4 -4 -4 -6
5 -34 19 -63 15 -28 20 -47 13 -43 -10 6 -11 5 -1 -8 7 -8 10 -18 6 -21 -3 -4
2 -7 11 -7 11 0 16 -5 13 -13 -3 -7 1 -21 9 -32 8 -10 14 -27 14 -37 0 -10 5
-18 11 -18 5 0 7 -4 4 -10 -3 -5 -1 -10 5 -10 6 0 8 -4 5 -10 -3 -5 2 -21 11
-35 9 -14 13 -25 9 -25 -5 0 0 -9 10 -20 9 -10 15 -26 12 -35 -4 -8 -2 -15 3
-15 6 0 10 -7 10 -15 0 -8 5 -15 11 -15 6 0 9 -7 5 -15 -3 -8 1 -21 9 -28 15
-16 9 -60 -8 -50 -6 3 -7 1 -3 -5 4 -6 1 -22 -6 -34 -12 -23 -18 -42 -20 -65
-1 -7 -5 -10 -9 -7 -5 3 -11 -8 -15 -23 -4 -15 -11 -33 -16 -40 -5 -7 -7 -17
-3 -23 3 -5 1 -10 -5 -10 -7 0 -10 -7 -6 -15 3 -8 2 -15 -3 -15 -5 0 -19 -25
-31 -55 -12 -30 -27 -55 -34 -55 -6 0 -4 -5 4 -10 10 -6 11 -10 2 -10 -6 0
-11 -3 -10 -7 2 -11 -25 -67 -37 -75 -6 -5 -4 -8 5 -8 13 0 13 -1 0 -10 -8 -5
-11 -10 -6 -10 5 0 2 -8 -6 -17 -16 -19 -33 -62 -30 -75 1 -5 -2 -8 -7 -8 -5
0 -12 -7 -15 -16 -3 -8 -2 -12 4 -9 6 3 7 -1 4 -9 -3 -9 -10 -14 -14 -11 -5 3
-9 -3 -9 -12 1 -28 -11 -76 -22 -89 -7 -8 -6 -14 1 -19 7 -4 7 -13 -1 -27 -9
-16 -8 -19 2 -13 8 6 10 4 3 -6 -13 -21 -14 -39 -1 -39 8 0 8 -3 0 -11 -12
-12 -6 -42 7 -34 5 3 6 -4 3 -15 -3 -11 0 -26 6 -34 9 -11 9 -16 1 -21 -8 -5
-6 -14 7 -29 29 -33 53 -82 45 -91 -4 -5 -1 -5 6 -1 7 5 12 1 12 -10 0 -10 3
-15 6 -11 9 9 34 -19 34 -37 0 -9 3 -15 8 -14 9 3 64 -32 78 -51 7 -8 16 -11
24 -6 10 6 12 4 7 -8 -4 -11 -2 -14 9 -10 7 3 14 0 14 -5 0 -6 9 -9 20 -7 11
2 19 1 16 -3 -2 -4 2 -12 9 -19 11 -10 15 -10 18 0 4 9 6 9 6 0 1 -7 8 -10 16
-7 8 4 17 -1 21 -10 3 -9 10 -13 16 -10 5 3 19 -2 30 -13 13 -10 18 -12 13 -4
-5 9 5 5 23 -7 17 -12 34 -22 39 -21 18 3 34 -2 29 -9 -2 -4 7 -9 22 -10 15
-1 29 -7 30 -12 2 -6 9 -10 15 -10 6 0 20 -8 31 -17 20 -17 20 -17 7 0 -12 15
-12 17 3 11 9 -3 16 -10 16 -16 0 -5 5 -6 10 -3 6 3 10 1 10 -4 0 -6 8 -11 18
-11 10 0 27 -7 38 -15 12 -8 24 -12 27 -8 3 3 13 -2 22 -11 9 -9 21 -14 26
-11 5 4 9 1 9 -4 0 -6 6 -11 14 -11 7 0 26 -7 42 -14 15 -8 30 -14 33 -12 10
6 46 -38 47 -56 3 -36 4 -39 17 -32 6 4 9 4 5 -1 -4 -4 -2 -15 5 -23 9 -13 9
-14 0 -8 -7 4 -13 2 -13 -3 0 -6 7 -11 16 -11 9 0 14 -7 12 -17 -1 -10 1 -24
5 -30 5 -7 5 -13 2 -13 -4 0 0 -7 9 -15 8 -9 13 -22 10 -30 -4 -8 -1 -15 5
-15 6 0 11 -13 11 -29 0 -16 5 -31 12 -33 6 -2 12 -13 14 -24 4 -35 16 -64 26
-64 6 0 8 -7 5 -15 -4 -8 -2 -17 4 -21 6 -3 8 -12 5 -20 -3 -8 -2 -14 3 -14 5
0 11 -8 14 -17 4 -10 13 -36 21 -58 9 -22 16 -48 16 -58 0 -10 5 -15 10 -12 6
3 10 -2 10 -13 0 -10 11 -40 24 -65 14 -25 21 -49 18 -53 -4 -4 -1 -4 5 0 8 4
13 1 13 -7 0 -8 7 -20 15 -27 8 -7 12 -17 8 -23 -3 -6 -1 -7 5 -3 7 4 12 2 12
-4 0 -6 5 -8 12 -4 6 4 8 3 5 -3 -4 -6 2 -22 14 -34 11 -13 17 -17 14 -9 -4 8
7 0 24 -18 18 -18 37 -30 42 -26 5 3 8 0 7 -8 -2 -8 6 -13 19 -12 13 1 20 -3
17 -7 -7 -12 46 -31 68 -26 10 3 16 1 12 -4 -3 -5 2 -10 10 -10 9 -1 25 -2 35
-3 11 0 23 -4 26 -8 4 -4 16 -3 26 3 11 5 19 6 19 2 0 -10 41 -10 58 1 7 4 12
4 12 0 0 -3 8 0 17 7 11 10 14 10 9 2 -4 -7 -2 -13 3 -13 6 0 11 4 11 9 0 5 9
7 20 4 12 -3 20 0 20 7 0 7 6 10 14 7 7 -3 23 1 35 9 12 8 25 13 30 9 5 -3 12
-1 16 5 4 6 11 8 16 5 5 -4 9 -3 9 2 0 4 11 13 25 20 19 8 24 8 19 0 -3 -7 1
-4 10 7 8 10 19 15 25 12 5 -4 12 -2 16 4 4 6 11 8 16 5 5 -4 9 -1 9 5 0 7 7
9 16 6 8 -3 12 -2 9 4 -3 6 5 10 19 10 14 0 26 4 26 8 0 5 18 14 40 21 22 6
40 17 40 24 0 8 4 7 10 -3 8 -12 10 -12 16 3 3 9 10 17 16 17 5 0 6 -6 3 -12
-4 -7 0 -5 9 6 8 10 19 15 25 11 6 -3 11 -1 11 4 0 6 6 11 14 11 8 0 17 6 19
13 4 9 6 9 6 -1 1 -7 5 -11 9 -8 5 3 9 -1 9 -9 0 -8 -5 -11 -10 -8 -6 4 -7 1
-1 -8 14 -23 16 -51 2 -43 -7 5 -8 3 -3 -7 14 -21 15 -60 3 -53 -7 5 -8 2 -3
-6 12 -20 15 -80 3 -80 -5 0 -6 -6 -1 -12 13 -21 12 -69 -1 -61 -7 4 -7 1 1
-7 9 -9 9 -19 2 -33 -6 -11 -7 -17 -2 -14 5 3 9 -20 9 -54 0 -32 -4 -59 -9
-59 -4 0 -5 -6 0 -12 13 -21 12 -69 -1 -61 -7 4 -7 1 1 -7 9 -9 9 -19 2 -33
-6 -11 -7 -17 -2 -14 12 8 10 -166 -2 -175 -6 -5 -5 -8 3 -8 7 0 10 -5 7 -10
-9 -15 -35 -12 -35 4 0 7 -13 19 -30 26 -16 7 -30 17 -30 22 0 5 -4 6 -10 3
-5 -3 -10 2 -10 12 0 15 -2 16 -10 3 -6 -10 -10 -11 -10 -2 0 6 -5 12 -11 12
-6 0 -17 7 -26 15 -8 8 -19 13 -24 10 -5 -4 -9 -2 -9 3 0 6 -7 13 -16 16 -10
4 -13 2 -8 -6 4 -6 -9 1 -29 16 -20 15 -40 25 -46 22 -5 -4 -16 0 -24 8 -11
11 -17 12 -27 3 -10 -9 -11 -9 -6 0 4 7 -5 14 -24 18 -16 4 -32 5 -34 3 -2 -2
-14 6 -27 17 -13 12 -19 14 -14 5 7 -13 6 -13 -7 -2 -9 7 -30 14 -47 15 -17 1
-31 5 -31 9 0 4 -7 5 -15 2 -8 -4 -15 -2 -15 4 0 6 -9 8 -20 5 -11 -3 -20 -1
-20 5 0 6 -11 9 -26 6 -16 -3 -23 -1 -19 6 3 6 0 7 -10 4 -8 -4 -22 -1 -30 6
-11 9 -15 9 -15 1 0 -7 -4 -9 -10 -6 -13 8 -48 15 -87 17 -18 1 -33 4 -33 7 0
3 -12 7 -27 7 -50 2 -178 13 -180 15 -9 6 -29 3 -35 -6 -5 -7 -8 -7 -8 1 0 17
-300 19 -300 2 0 -8 -3 -9 -8 -3 -9 14 -76 19 -67 5 3 -6 0 -7 -9 -4 -9 3 -13
11 -10 18 3 6 0 4 -8 -4 -8 -9 -32 -15 -58 -16 -40 -1 -128 -10 -170 -17 -8
-1 -19 -5 -25 -8 -5 -4 -18 -5 -27 -4 -10 2 -18 -1 -18 -6 0 -5 -11 -7 -25 -5
-14 3 -25 0 -25 -5 0 -6 -4 -7 -10 -4 -5 3 -10 1 -10 -6 0 -8 -4 -8 -15 1 -10
9 -15 9 -15 1 0 -6 -8 -11 -17 -11 -10 0 -25 -5 -33 -11 -13 -9 -12 -10 3 -5
13 4 16 2 10 -7 -11 -18 -12 -37 -2 -37 4 0 6 -7 3 -15 -4 -8 -1 -15 5 -15 6
0 8 -7 5 -15 -4 -9 1 -18 11 -21 13 -5 14 -9 3 -15 -10 -7 -10 -9 0 -9 6 0 12
-7 12 -16 0 -8 5 -12 10 -9 9 5 15 -15 11 -37 0 -5 6 -8 15 -8 9 0 14 -6 12
-12 -3 -7 5 -21 16 -31 12 -10 14 -15 6 -11 -8 4 0 -8 18 -26 17 -18 32 -36
32 -41 0 -5 13 -22 30 -37 16 -16 27 -31 24 -35 -3 -3 4 -10 15 -17 12 -6 19
-15 16 -21 -4 -5 -2 -9 4 -9 5 0 13 -9 16 -20 4 -11 10 -18 14 -16 9 6 41 -30
34 -38 -4 -3 1 -6 10 -6 9 0 17 -5 17 -11 0 -7 11 -22 24 -34 14 -13 22 -26
19 -29 -4 -3 -1 -6 5 -6 15 0 52 -36 52 -50 0 -9 21 -15 42 -11 5 0 7 -2 7 -7
-3 -19 2 -33 11 -27 5 3 15 -5 21 -19 7 -14 16 -23 21 -20 4 3 11 -2 14 -10 3
-9 11 -16 17 -16 6 0 24 -15 40 -32 16 -18 26 -26 23 -18 -4 8 1 5 10 -8 9
-12 23 -22 31 -22 7 0 16 -7 19 -15 4 -8 13 -15 21 -15 7 0 25 -11 38 -24 13
-13 26 -22 29 -19 2 3 14 -5 26 -17 11 -11 25 -18 30 -15 6 4 10 1 10 -4 0 -6
9 -11 19 -11 11 0 21 -3 23 -7 7 -17 139 -73 171 -73 9 0 17 -4 17 -10 0 -5 3
-9 7 -9 5 1 10 0 13 -1 13 -5 47 -11 68 -12 12 0 22 -3 22 -7 0 -3 24 -7 53
-8 28 0 63 -2 77 -3 33 -2 128 7 160 15 14 3 36 8 48 11 13 3 34 11 46 19 13
8 26 12 29 8 4 -3 15 1 24 10 10 8 31 20 46 26 18 7 26 15 21 23 -4 7 -4 10 1
6 4 -4 14 -3 22 3 7 6 13 8 13 4 0 -5 8 2 19 13 10 12 21 19 25 15 3 -3 6 1 6
10 0 9 6 17 13 17 7 0 19 9 27 19 7 11 18 17 24 14 5 -4 7 1 3 11 -4 9 -3 14
2 11 5 -3 12 -1 16 5 4 6 11 7 17 4 7 -4 8 -2 4 4 -4 6 7 26 23 44 27 29 30
30 26 10 -2 -12 -7 -27 -11 -34 -4 -6 -3 -9 2 -5 5 3 9 -20 9 -53 0 -36 -4
-56 -10 -53 -5 3 -5 0 2 -7 9 -9 9 -19 2 -33 -8 -14 -8 -18 0 -13 12 8 8 -54
-5 -75 -4 -7 -3 -9 3 -6 6 4 9 -18 9 -54 0 -32 -4 -59 -9 -59 -4 0 -5 -6 0
-13 13 -20 12 -68 -1 -60 -7 4 -7 1 1 -7 9 -9 9 -19 2 -33 -8 -13 -8 -17 -1
-13 12 7 9 -85 -4 -105 -4 -7 -3 -10 4 -5 7 4 9 -5 7 -26 -1 -18 4 -44 12 -57
10 -16 11 -21 3 -16 -7 5 -3 -10 10 -33 13 -23 27 -39 32 -36 4 3 8 -1 8 -8 0
-8 15 -22 33 -33 38 -23 167 -28 174 -7 3 6 11 12 19 12 15 0 71 50 57 50 -4
0 0 5 10 11 19 11 24 34 5 24 -7 -4 -6 -1 2 7 16 13 22 39 22 95 1 20 5 30 11
26 6 -4 7 -1 1 8 -13 21 -14 39 -2 39 7 0 7 4 1 13 -12 14 -10 117 2 137 5 8
4 11 -2 7 -12 -8 -10 83 2 103 5 8 4 11 -2 7 -5 -4 -10 7 -10 23 0 17 5 30 10
30 6 0 6 5 0 13 -14 18 -10 240 4 244 6 2 15 -1 19 -8 4 -8 3 -9 -4 -5 -8 5
-10 2 -6 -8 3 -9 10 -13 15 -10 5 3 9 1 9 -4 0 -16 50 -63 60 -57 6 4 9 3 8
-2 -5 -15 50 -64 55 -50 4 8 6 7 6 -3 1 -16 46 -50 93 -71 15 -6 25 -16 21
-22 -3 -6 -1 -7 5 -3 6 4 19 2 29 -3 36 -19 101 -40 107 -34 3 4 6 2 6 -4 0
-5 15 -11 33 -12 55 -3 57 -4 57 -13 0 -5 5 -6 11 -3 5 4 53 7 105 7 54 1 94
5 94 10 0 6 7 8 15 4 8 -3 40 4 72 14 32 11 66 20 76 20 9 0 17 4 17 10 0 5 3
9 8 8 4 -1 20 4 35 10 16 7 35 12 43 12 8 0 14 5 14 10 0 6 7 10 15 10 8 0 15
4 15 10 0 5 8 7 18 3 9 -3 14 -2 9 2 -4 5 7 14 25 20 18 6 32 16 31 22 -2 7 6
10 19 8 11 -3 18 -2 14 2 -9 10 33 35 46 27 6 -4 9 -3 6 2 -7 11 17 35 26 27
3 -3 8 2 12 11 3 9 11 16 18 16 6 0 18 9 25 19 8 11 21 17 29 13 8 -3 13 -1
10 4 -7 11 17 35 26 27 3 -4 6 -1 6 5 0 7 8 12 18 12 14 0 15 2 2 10 -13 9
-13 10 0 11 8 1 19 1 24 0 5 -1 6 5 3 13 -4 10 -1 13 8 9 9 -3 18 4 24 18 4
13 12 24 17 24 5 0 8 3 7 7 -2 4 9 11 23 14 13 4 23 8 21 11 -3 2 14 23 37 47
22 24 47 51 54 62 7 10 10 12 7 4 -3 -8 1 -6 10 6 8 11 29 36 46 55 17 19 45
53 62 77 17 23 34 42 39 42 4 0 8 7 8 16 0 9 5 12 12 8 7 -5 9 -2 6 8 -4 8 -2
21 3 29 7 12 9 12 9 -1 0 -8 10 5 22 30 12 25 21 48 20 52 -1 4 5 5 13 2 11
-5 15 1 15 20 0 16 6 26 15 26 8 0 12 6 9 14 -3 7 2 21 11 30 9 9 14 23 11 32
-3 8 -2 12 4 9 6 -3 10 -3 11 2 1 8 5 28 10 53 3 10 -8 18 -28 24 -18 6 -33
14 -33 19 0 4 -4 5 -10 2 -5 -3 -10 0 -10 7 0 9 -3 9 -10 -2 -5 -8 -10 -10
-10 -3 0 6 -9 9 -20 6 -11 -3 -20 -1 -20 3 0 5 -16 10 -36 12 -20 1 -41 5 -48
9 -6 4 -24 8 -41 8 -16 0 -36 4 -42 8 -8 5 -13 3 -13 -5 0 -8 -3 -9 -8 -3 -4
6 -28 10 -54 10 -27 0 -48 2 -48 5 0 3 -9 6 -20 7 -13 1 -18 -2 -13 -10 5 -9
3 -9 -8 0 -19 15 -339 16 -357 0 -10 -8 -16 -7 -22 2 -4 8 -13 10 -19 6 -7 -4
-44 -8 -82 -10 -39 -2 -78 -10 -87 -17 -9 -7 -13 -8 -9 -2 5 8 -4 11 -26 8
-17 -1 -32 -3 -32 -4 0 -1 -27 -6 -75 -13 -8 -2 -21 -7 -29 -11 -10 -7 -12 -5
-6 3 6 10 3 11 -11 3 -11 -5 -25 -7 -31 -5 -7 3 -13 1 -13 -4 0 -5 -8 -9 -17
-9 -10 -1 -34 -5 -53 -9 -19 -4 -41 -8 -47 -8 -7 0 -13 -5 -13 -11 0 -6 -5 -4
-10 4 -6 10 -10 11 -10 3 0 -7 -11 -13 -24 -13 -14 0 -27 -4 -31 -10 -3 -5
-12 -7 -20 -3 -8 3 -15 1 -15 -5 0 -6 -11 -9 -25 -8 -13 2 -23 -1 -22 -7 1 -5
-7 -11 -18 -13 -11 -1 -29 -4 -40 -6 -11 -2 -26 -10 -33 -18 -8 -9 -11 -10 -7
-2 6 11 3 11 -16 0 -13 -7 -29 -18 -36 -25 -8 -7 -20 -10 -28 -7 -8 4 -18 -1
-21 -10 -3 -9 -10 -13 -15 -10 -5 3 -21 -7 -35 -23 -15 -15 -20 -19 -13 -9 13
18 12 18 -7 8 -12 -6 -24 -19 -28 -27 -3 -9 -10 -13 -16 -10 -5 3 -10 1 -10
-5 0 -6 -4 -8 -10 -5 -5 3 -10 0 -10 -7 0 -7 -9 -19 -20 -26 -17 -10 -21 -10
-27 4 -3 9 0 20 8 25 8 5 9 9 4 9 -12 0 -13 55 -2 66 4 4 2 14 -5 21 -9 11 -9
16 1 23 8 4 9 10 3 13 -11 7 -9 118 3 137 5 8 4 11 -2 7 -12 -8 -10 83 2 103
5 8 4 11 -1 7 -6 -3 -10 16 -10 43 0 29 4 46 9 43 6 -4 7 -1 2 7 -13 21 -15
81 -2 73 6 -4 7 -1 1 8 -13 21 -14 39 -2 39 7 0 7 4 1 12 -14 18 -10 121 5
126 6 2 19 -4 28 -12 8 -9 19 -14 24 -11 5 3 11 -1 13 -7 4 -10 6 -9 6 1 1 10
6 9 19 -5 9 -10 28 -21 42 -23 14 -1 28 -7 31 -12 3 -5 16 -11 29 -14 12 -2
32 -12 43 -22 11 -10 17 -12 12 -4 -5 9 1 8 18 -4 23 -15 43 -22 70 -24 5 -1
6 -5 3 -9 -5 -8 8 -12 47 -13 9 0 15 -4 12 -10 -4 -5 6 -9 20 -9 14 0 24 -4
21 -8 -4 -7 17 -12 62 -15 6 0 12 -3 12 -6 0 -14 176 -14 202 0 10 5 18 7 18
3 0 -3 7 -1 15 6 8 7 15 9 15 5 0 -4 7 -2 15 5 8 7 15 9 15 4 0 -5 4 -4 8 2 4
7 24 19 45 27 20 9 37 20 37 25 0 5 9 12 21 15 12 3 18 10 14 16 -3 6 0 11 8
11 7 0 20 11 27 25 7 13 21 27 31 30 11 4 16 12 12 21 -3 7 -1 14 5 14 5 0 13
11 16 25 4 14 11 25 16 25 5 0 7 9 5 20 -2 11 1 19 8 17 7 -1 11 4 10 11 -2 6
2 12 8 12 5 0 7 4 4 10 -3 5 1 20 10 33 8 13 13 26 10 29 -3 3 1 11 9 17 8 7
12 19 9 27 -3 8 0 14 6 14 6 0 11 7 11 16 0 8 4 13 9 10 5 -4 7 3 4 14 -3 12
0 20 6 20 7 0 10 4 6 9 -3 5 -1 12 5 16 6 4 8 11 5 16 -4 5 -1 9 5 9 6 0 8 5
4 12 -4 6 1 17 11 25 11 7 16 13 12 13 -4 0 -1 13 7 29 9 16 12 31 9 35 -4 3
-1 6 6 6 8 0 11 7 7 15 -3 8 -1 15 4 15 9 0 26 39 22 53 -1 4 3 7 9 7 5 0 7 5
4 10 -3 5 -2 10 4 10 6 0 8 7 5 15 -4 8 -1 15 7 15 7 0 9 3 6 7 -4 3 1 12 11
19 12 10 14 16 5 22 -8 5 -3 14 17 27 17 11 30 23 30 27 0 4 7 4 17 1 9 -4 14
-2 11 3 -4 5 5 10 19 11 14 0 29 7 34 15 5 7 9 10 9 6 0 -4 21 2 46 12 25 11
49 18 54 15 4 -3 11 2 14 11 3 8 10 13 14 10 5 -3 20 1 35 9 14 7 39 16 56 20
17 4 31 11 31 17 0 6 7 8 15 4 8 -3 15 -1 15 5 0 6 5 7 10 4 6 -3 13 0 16 8 3
8 16 13 30 11 13 -1 24 2 24 7 0 6 4 8 9 5 5 -3 11 0 14 8 4 9 14 12 28 9 15
-4 20 -3 15 5 -5 8 -2 10 8 6 9 -3 16 -1 16 5 0 6 7 8 15 5 8 -4 15 -1 15 6 0
6 5 8 10 5 6 -3 10 -1 10 5 0 6 4 9 9 5 5 -3 17 2 25 11 9 8 16 12 16 8 0 -5
5 -3 12 4 7 7 20 12 31 12 10 0 16 3 14 8 -3 4 17 23 44 42 27 19 52 43 55 53
3 10 8 16 12 13 6 -7 52 58 52 73 0 6 5 11 11 11 5 0 8 4 5 9 -3 4 1 17 9 27
8 10 15 29 15 42 0 12 5 22 11 22 6 0 9 9 6 20 -3 11 -2 20 3 20 4 0 5 12 2
26 -4 21 -2 25 9 19 11 -7 12 -6 2 6 -10 12 -10 18 0 28 8 8 9 14 1 19 -6 4
-10 16 -8 27 2 10 -3 26 -9 34 -9 12 -9 13 1 7 13 -8 17 15 5 28 -7 7 -10 17
-20 69 -3 15 -10 27 -15 27 -5 0 -6 5 -3 10 4 6 1 17 -5 25 -7 8 -9 15 -4 15
5 0 1 5 -10 11 -15 9 -16 13 -5 20 11 7 11 9 1 9 -7 0 -10 5 -7 10 3 6 2 10
-3 10 -9 0 -25 37 -23 53 1 4 -4 7 -10 7 -6 0 -9 7 -5 15 3 8 0 15 -6 15 -6 0
-8 3 -5 6 3 4 1 16 -5 28 -7 11 -11 24 -10 29 1 4 -3 7 -9 7 -5 0 -7 5 -4 10
3 6 -3 24 -15 40 -12 17 -18 30 -14 30 3 0 1 7 -6 15 -7 8 -9 15 -4 15 4 0 3
5 -4 12 -7 7 -12 20 -12 30 0 10 -5 18 -11 18 -6 0 -9 6 -7 12 3 7 -1 19 -9
26 -7 7 -13 22 -13 32 0 11 -9 34 -20 52 -11 18 -20 41 -20 51 0 9 -6 17 -12
17 -10 0 -9 3 1 9 8 5 10 14 6 21 -5 8 -4 11 2 7 11 -7 38 52 29 61 -3 2 4 13
14 25 11 11 17 24 14 29 -3 4 0 8 7 8 7 0 9 3 6 7 -4 3 -2 12 4 20 6 7 8 13 4
13 -4 0 -2 7 5 15 7 8 9 15 4 15 -5 0 -3 4 5 9 14 9 21 28 24 64 1 9 4 17 7
17 9 0 40 68 40 86 0 8 4 12 10 9 6 -3 7 1 4 9 -3 9 -1 16 5 16 7 0 11 6 10
13 -2 20 13 57 22 52 4 -3 6 4 4 15 -2 11 0 20 6 20 5 0 9 9 9 20 0 11 4 20 9
20 6 0 8 10 6 21 -3 12 -1 19 2 15 9 -8 35 53 27 65 -3 5 -1 9 4 9 5 0 9 6 10
13 3 34 16 73 26 79 7 5 6 8 -3 8 -11 0 -11 3 -1 15 10 12 10 15 -1 15 -9 0
-10 3 -3 8 11 8 13 56 2 67 -4 4 -3 17 3 28 6 10 7 17 2 14 -6 -4 -10 8 -11
25 0 17 -6 34 -13 38 -6 4 -8 13 -4 19 4 7 -1 24 -11 39 -10 15 -17 28 -15 30
1 2 -11 16 -28 32 -18 18 -25 31 -18 34 8 3 8 5 -1 5 -7 1 -23 12 -36 26 -13
13 -26 22 -29 18 -4 -3 -7 -1 -7 6 0 15 -20 35 -40 39 -8 2 -17 7 -20 10 -3 4
-12 8 -20 10 -8 2 -17 8 -18 13 -2 5 -8 7 -13 3 -5 -3 -9 0 -9 5 0 6 -7 11
-15 11 -8 0 -23 4 -33 9 -9 5 -36 18 -59 30 -24 12 -43 20 -43 16 0 -3 -10 1
-22 9 -13 8 -32 16 -43 18 -11 2 -26 9 -33 16 -8 7 -18 10 -23 7 -5 -4 -9 -1
-9 4 0 6 -9 11 -20 11 -11 0 -20 5 -20 12 0 6 -3 9 -6 5 -4 -3 -23 2 -44 13
-21 11 -40 16 -44 13 -3 -4 -6 -1 -6 5 0 7 -7 12 -15 12 -14 0 -53 18 -65 30
-3 3 -11 5 -17 6 -39 3 -44 5 -39 13 3 5 -1 12 -10 15 -8 3 -12 2 -9 -4 3 -6
-1 -7 -9 -4 -9 3 -16 10 -16 14 0 5 -12 10 -26 12 -22 2 -28 9 -30 33 -2 16
-8 31 -14 33 -5 2 -10 14 -10 27 0 13 -6 30 -13 37 -8 7 -12 19 -9 27 3 10 0
11 -9 5 -12 -7 -12 -5 0 9 11 14 11 18 -3 23 -9 3 -13 10 -10 16 3 5 -1 17 -8
26 -24 27 -33 46 -19 37 8 -4 7 2 -3 17 -9 14 -13 28 -10 31 4 4 -1 10 -10 13
-14 5 -15 9 -4 15 10 7 11 9 0 9 -7 0 -11 4 -8 9 3 5 -1 14 -9 21 -11 9 -12
16 -5 25 8 10 8 15 -1 21 -8 5 -9 3 -4 -6 5 -9 4 -11 -4 -6 -7 4 -10 13 -8 19
2 7 -3 21 -12 31 -12 14 -12 17 -2 11 9 -5 7 3 -6 21 -11 16 -18 35 -16 42 3
6 -1 12 -7 12 -7 0 -10 8 -7 20 3 13 1 18 -6 13 -6 -4 -8 0 -4 10 3 10 2 17
-4 17 -6 0 -8 4 -5 9 4 5 2 11 -3 13 -5 1 -11 10 -13 18 -2 8 -9 21 -16 28 -7
8 -10 18 -7 23 4 5 1 9 -4 9 -6 0 -11 6 -11 14 0 7 -7 19 -15 26 -8 7 -12 17
-8 23 3 5 2 8 -3 5 -5 -3 -15 0 -22 8 -10 11 -10 14 0 14 7 0 1 8 -12 17 -28
20 -56 42 -75 61 -8 6 -21 12 -29 12 -9 0 -16 4 -16 10 0 12 -69 42 -80 35 -5
-3 -10 -1 -12 5 -1 5 -20 11 -40 14 -21 2 -43 8 -49 12 -8 5 -9 3 -4 -7 7 -11
6 -12 -6 -3 -11 9 -84 13 -84 4 0 -1 -20 -4 -45 -6 -77 -7 -80 -8 -80 -16 0
-4 -9 -8 -19 -8 -11 0 -23 -5 -26 -10 -4 -6 -11 -8 -16 -5 -5 4 -9 1 -9 -5 0
-6 -5 -8 -10 -5 -6 4 -17 1 -25 -5 -8 -6 -19 -9 -25 -5 -5 3 -10 -1 -10 -10 0
-9 -4 -14 -9 -10 -5 3 -15 0 -23 -7 -7 -7 -24 -14 -38 -16 -13 -1 -27 -7 -30
-12 -5 -9 -36 -17 -67 -19 -7 -1 -12 -7 -10 -13 1 -7 -6 -12 -15 -10 -10 2
-18 -3 -18 -10 0 -9 -3 -9 -10 2 -6 10 -10 11 -10 3 0 -7 -6 -12 -12 -10 -7 1
-12 -3 -11 -10 2 -7 -6 -10 -17 -8 -11 2 -22 -1 -25 -6 -4 -5 -11 -7 -16 -4
-5 4 -9 2 -9 -4 0 -5 -9 -8 -21 -6 -18 4 -19 2 -7 -12 10 -13 10 -15 0 -9 -7
4 -20 2 -29 -6 -14 -11 -16 -11 -8 1 9 16 -7 8 -39 -18 -16 -13 -18 -13 -11
-1 7 12 6 13 -7 3 -8 -7 -19 -9 -23 -5 -5 4 -5 2 -2 -4 8 -13 -20 -27 -34 -18
-5 3 -9 0 -9 -6 0 -6 -4 -8 -10 -5 -5 3 -10 0 -10 -7 0 -11 -2 -11 -9 0 -4 7
-17 15 -27 16 -10 2 -18 8 -17 12 1 5 -10 10 -24 11 -14 0 -28 5 -32 10 -6 8
-19 12 -50 17 -8 2 -17 8 -19 14 -2 7 -8 9 -13 6 -6 -3 -16 0 -24 6 -8 7 -15
9 -15 5 0 -4 -17 5 -37 21 -20 15 -33 22 -29 16 4 -7 3 -12 -3 -12 -5 0 -15 8
-20 18 -8 13 -11 14 -11 2 0 -12 -2 -12 -10 2 -6 10 -19 15 -30 13 -11 -2 -18
0 -15 6 4 5 -3 9 -14 9 -12 0 -21 5 -21 11 0 5 -4 8 -9 4 -5 -3 -12 -1 -16 5
-4 6 -11 8 -16 5 -5 -4 -9 -1 -9 5 0 6 -4 9 -9 5 -5 -3 -16 2 -24 10 -9 8 -23
15 -31 15 -9 0 -16 4 -16 9 0 6 -9 8 -20 6 -10 -2 -30 5 -44 16 -14 11 -30 17
-36 14 -5 -3 -10 -1 -10 5 0 6 -5 8 -10 5 -6 -4 -17 -2 -24 4 -18 15 -159 35
-170 24z"/>
</g>
</svg>
